<svg width="28" height="22" viewBox="0 0 28 22" version="1.1" xmlns="http://www.w3.org/2000/svg" xmlns:xlink="http://www.w3.org/1999/xlink">
<title>android-call</title>
<desc>Created using Figma</desc>
<g id="Canvas" transform="translate(-878 -4512)">
<g id="android-call">
<g id="Vector">
<use xlink:href="#path0_fill" transform="matrix(1 -2.22045e-16 0.285589 0.958352 878.043 4512.84)" fill="#FFFFFF"/>
</g>
</g>
</g>
<defs>
<path id="path0_fill" d="M 20.0258 14.7248C 18.5533 14.7248 17.1395 14.489 15.8441 14.0772C 15.4317 13.9592 14.9607 14.0179 14.6662 14.3717L 12.0743 16.9629C 8.71697 15.2551 6.00785 12.5455 4.29951 9.18806L 6.8914 6.59685C 7.18582 6.30237 7.30344 5.8313 7.18582 5.41888C 6.71442 4.06432 6.47892 2.65047 6.47892 1.17797C 6.47892 0.530314 5.94888 0 5.30095 0L 1.17797 0C 0.53004 0 0 0.530314 0 1.17797C 0 12.2509 8.95286 21.2037 20.0258 21.2037C 20.6735 21.2037 21.2038 20.6734 21.2038 20.0258L 21.2038 15.9028C 21.2038 15.2551 20.6735 14.7248 20.0258 14.7248Z"/>
</defs>
</svg>
