<svg width="791" height="94" viewBox="0 0 791 94" version="1.1" xmlns="http://www.w3.org/2000/svg" xmlns:xlink="http://www.w3.org/1999/xlink">
<title>NEWDRIVING</title>
<desc>Created using Figma</desc>
<g id="Canvas" transform="translate(-436 -4829)">
<g id="NEWDRIVING">
<use xlink:href="#path0_fill" transform="translate(427 4785)" fill="#FC4D73"/>
<use xlink:href="#path1_fill" transform="translate(427 4785)" fill="#FFFFFF"/>
</g>
</g>
<defs>
<path id="path0_fill" d="M 9.936 136L 9.936 46.3L 34.224 46.3L 54.096 86.32L 62.652 106.468L 63.204 106.468C 62.928 104.076 62.606 101.454 62.238 98.602C 61.87 95.75 61.548 92.852 61.272 89.908C 60.996 86.872 60.72 83.882 60.444 80.938C 60.26 77.902 60.168 75.004 60.168 72.244L 60.168 46.3L 82.8 46.3L 82.8 136L 58.512 136L 38.64 95.842L 30.084 75.832L 29.532 75.832C 30.084 80.984 30.728 86.596 31.464 92.668C 32.2 98.74 32.568 104.536 32.568 110.056L 32.568 136L 9.936 136ZM 102.655 136L 102.655 46.3L 160.615 46.3L 160.615 66.172L 126.391 66.172L 126.391 80.248L 155.647 80.248L 155.647 100.12L 126.391 100.12L 126.391 116.128L 161.995 116.128L 161.995 136L 102.655 136ZM 186.512 136L 170.78 46.3L 195.068 46.3L 200.036 85.492C 200.496 90.184 201.002 94.876 201.554 99.568C 202.106 104.26 202.612 108.952 203.072 113.644L 203.624 113.644C 204.452 108.952 205.28 104.26 206.108 99.568C 206.936 94.876 207.764 90.184 208.592 85.492L 217.148 46.3L 237.02 46.3L 245.576 85.492C 246.404 90 247.232 94.646 248.06 99.43C 248.888 104.122 249.716 108.86 250.544 113.644L 251.096 113.644C 251.556 108.86 252.062 104.122 252.614 99.43C 253.166 94.738 253.672 90.092 254.132 85.492L 259.1 46.3L 281.732 46.3L 266.828 136L 236.744 136L 229.844 100.396C 229.108 96.9 228.464 93.358 227.912 89.77C 227.452 86.182 226.992 82.732 226.532 79.42L 225.98 79.42C 225.52 82.732 225.014 86.182 224.462 89.77C 224.002 93.358 223.404 96.9 222.668 100.396L 216.044 136L 186.512 136Z"/>
<path id="path1_fill" d="M 293.079 136L 293.079 46.3L 319.575 46.3C 326.383 46.3 332.593 47.128 338.205 48.784C 343.909 50.44 348.785 53.062 352.833 56.65C 356.881 60.238 360.009 64.838 362.217 70.45C 364.517 76.062 365.667 82.824 365.667 90.736C 365.667 98.648 364.563 105.456 362.355 111.16C 360.147 116.864 357.019 121.556 352.971 125.236C 349.015 128.916 344.277 131.63 338.757 133.378C 333.329 135.126 327.395 136 320.955 136L 293.079 136ZM 316.815 116.956L 318.195 116.956C 321.415 116.956 324.451 116.588 327.303 115.852C 330.155 115.024 332.593 113.644 334.617 111.712C 336.733 109.78 338.389 107.112 339.585 103.708C 340.781 100.304 341.379 95.98 341.379 90.736C 341.379 85.492 340.781 81.214 339.585 77.902C 338.389 74.59 336.733 72.014 334.617 70.174C 332.593 68.334 330.155 67.092 327.303 66.448C 324.451 65.712 321.415 65.344 318.195 65.344L 316.815 65.344L 316.815 116.956ZM 381.62 136L 381.62 46.3L 415.568 46.3C 420.352 46.3 424.906 46.76 429.23 47.68C 433.646 48.6 437.464 50.164 440.684 52.372C 443.996 54.58 446.618 57.57 448.55 61.342C 450.482 65.022 451.448 69.668 451.448 75.28C 451.448 81.72 450.114 87.056 447.446 91.288C 444.87 95.52 441.374 98.832 436.958 101.224L 456.416 136L 429.92 136L 414.464 105.916L 405.356 105.916L 405.356 136L 381.62 136ZM 405.356 87.148L 413.912 87.148C 423.48 87.148 428.264 83.192 428.264 75.28C 428.264 71.416 427.022 68.748 424.538 67.276C 422.146 65.804 418.604 65.068 413.912 65.068L 405.356 65.068L 405.356 87.148ZM 468.543 136L 468.543 46.3L 492.279 46.3L 492.279 136L 468.543 136ZM 527.387 136L 500.891 46.3L 526.007 46.3L 535.391 85.492C 536.679 90.276 537.783 95.014 538.703 99.706C 539.623 104.306 540.727 109.044 542.015 113.92L 542.567 113.92C 543.855 109.044 544.959 104.306 545.879 99.706C 546.891 95.014 547.995 90.276 549.191 85.492L 558.299 46.3L 582.587 46.3L 556.091 136L 527.387 136ZM 591.18 136L 591.18 46.3L 614.916 46.3L 614.916 136L 591.18 136ZM 634.844 136L 634.844 46.3L 659.132 46.3L 679.004 86.32L 687.56 106.468L 688.112 106.468C 687.836 104.076 687.514 101.454 687.146 98.602C 686.778 95.75 686.456 92.852 686.18 89.908C 685.904 86.872 685.628 83.882 685.352 80.938C 685.168 77.902 685.076 75.004 685.076 72.244L 685.076 46.3L 707.708 46.3L 707.708 136L 683.42 136L 663.548 95.842L 654.992 75.832L 654.44 75.832C 654.992 80.984 655.636 86.596 656.372 92.668C 657.108 98.74 657.476 104.536 657.476 110.056L 657.476 136L 634.844 136ZM 768.963 137.656C 762.707 137.656 756.819 136.736 751.299 134.896C 745.779 132.964 740.949 130.112 736.809 126.34C 732.761 122.476 729.541 117.692 727.149 111.988C 724.849 106.192 723.699 99.476 723.699 91.84C 723.699 84.296 724.895 77.626 727.287 71.83C 729.679 65.942 732.899 61.02 736.947 57.064C 741.087 53.016 745.871 49.934 751.299 47.818C 756.727 45.702 762.431 44.644 768.411 44.644C 775.035 44.644 780.739 45.84 785.523 48.232C 790.399 50.532 794.447 53.292 797.667 56.512L 785.247 71.692C 783.039 69.76 780.693 68.196 778.209 67C 775.817 65.712 772.827 65.068 769.239 65.068C 766.203 65.068 763.397 65.666 760.821 66.862C 758.245 68.058 755.991 69.76 754.059 71.968C 752.127 74.176 750.609 76.89 749.505 80.11C 748.493 83.33 747.987 86.964 747.987 91.012C 747.987 99.476 749.873 105.962 753.645 110.47C 757.417 114.978 763.351 117.232 771.447 117.232C 772.735 117.232 773.977 117.094 775.173 116.818C 776.461 116.542 777.519 116.128 778.347 115.576L 778.347 103.156L 765.099 103.156L 765.099 83.836L 799.323 83.836L 799.323 126.616C 796.103 129.652 791.825 132.274 786.489 134.482C 781.153 136.598 775.311 137.656 768.963 137.656Z"/>
</defs>
</svg>
