<svg width="27" height="22" viewBox="0 0 27 22" version="1.1" xmlns="http://www.w3.org/2000/svg" xmlns:xlink="http://www.w3.org/1999/xlink">
<title>social-twitter</title>
<desc>Created using Figma</desc>
<g id="Canvas" transform="translate(-1190 -7754)">
<g id="social-twitter">
<g id="Vector">
<use xlink:href="#path0_fill" transform="translate(1190 7754)" fill="#585858"/>
</g>
</g>
</g>
<defs>
<path id="path0_fill" d="M 27 2.60677C 26.0044 3.04792 24.9402 3.34583 23.8188 3.48333C 24.9631 2.79583 25.8442 1.70729 26.2562 0.4125C 25.1863 1.04844 24.0019 1.5125 22.7374 1.75885C 21.7247 0.676042 20.2829 0 18.6923 0C 15.6313 0 13.1538 2.48646 13.1538 5.55156C 13.1538 5.98698 13.1996 6.41094 13.2969 6.81771C 8.69104 6.58854 4.60585 4.37708 1.87667 1.01406C 1.40178 1.83333 1.12715 2.7901 1.12715 3.80417C 1.12715 5.72917 2.11125 7.43073 3.59886 8.4276C 2.68341 8.40469 1.82517 8.1526 1.08137 7.73438C 1.08137 7.75729 1.08137 7.78021 1.08137 7.80312C 1.08137 10.4958 2.99237 12.7359 5.52702 13.2458C 5.06357 13.3719 4.57152 13.4406 4.06802 13.4406C 3.71329 13.4406 3.36427 13.4062 3.0267 13.3375C 3.73045 15.5432 5.77877 17.1474 8.2047 17.1932C 6.31087 18.6828 3.91926 19.5708 1.32168 19.5708C 0.875397 19.5708 0.434838 19.5422 2.1826e-08 19.4906C 2.4431 21.0833 5.35537 22 8.47934 22C 18.6809 22 24.2537 13.538 24.2537 6.19896C 24.2537 5.95833 24.2479 5.71771 24.2365 5.48281C 25.3179 4.69792 26.2562 3.72396 27 2.60677Z"/>
</defs>
</svg>
