<svg width="22" height="22" viewBox="0 0 22 22" version="1.1" xmlns="http://www.w3.org/2000/svg" xmlns:xlink="http://www.w3.org/1999/xlink">
<title>social-insta</title>
<desc>Created using Figma</desc>
<g id="Canvas" transform="translate(-1241 -7754)">
<g id="social-insta">
<g id="Group">
<g id="Vector">
<use xlink:href="#path0_fill" transform="translate(1247.39 7760.38)" fill="#585858"/>
</g>
</g>
<g id="Group">
<g id="Vector">
<use xlink:href="#path1_fill" transform="translate(1241 7754)" fill="#585858"/>
</g>
<g id="Vector">
<use xlink:href="#path2_fill" transform="translate(1241 7765)" fill="#585858"/>
</g>
</g>
</g>
</g>
<defs>
<path id="path0_fill" d="M 4.58333 9.16667C 7.11464 9.16667 9.16667 7.11464 9.16667 4.58333C 9.16667 2.05203 7.11464 0 4.58333 0C 2.05203 0 0 2.05203 0 4.58333C 0 7.11464 2.05203 9.16667 4.58333 9.16667Z"/>
<path id="path1_fill" d="M 6.49143 6.43884C 7.70338 5.22689 9.31471 4.55228 11.0286 4.55228C 12.7426 4.55228 14.3539 5.23044 15.5659 6.44239C 16.3348 7.21136 16.8842 8.13542 17.1833 9.16667L 22 9.16667L 22 2.69271C 22 1.17391 20.8261 0 19.3073 0L 2.80729 0C 1.28849 0 0 1.17391 0 2.69271L 0 9.16667L 4.87392 9.16667C 5.17309 8.13542 5.72246 7.20781 6.49143 6.43884ZM 20.1667 4.76667C 20.1667 5.17166 19.8384 5.5 19.4333 5.5L 17.2333 5.5C 16.8283 5.5 16.5 5.17172 16.5 4.76667L 16.5 2.56667C 16.5 2.16167 16.8283 1.83333 17.2333 1.83333L 19.4333 1.83333C 19.8383 1.83333 20.1667 2.16161 20.1667 2.56667L 20.1667 4.76667Z"/>
<path id="path2_fill" d="M 15.5659 4.51338C 14.3539 5.72533 12.7426 6.38562 11.0286 6.38562C 9.31471 6.38562 7.70338 5.72894 6.49143 4.51699C 5.28172 3.30728 4.61461 1.66146 4.61209 0L 0 0L 0 8.19271C 0 9.71151 1.28849 11 2.80729 11L 19.3073 11C 20.8261 11 22 9.71151 22 8.19271L 22 0L 17.4452 0C 17.4427 1.66146 16.7756 3.30367 15.5659 4.51338Z"/>
</defs>
</svg>
